<svg width="69" height="64" viewBox="0 0 69 64" fill="none" xmlns="http://www.w3.org/2000/svg">
<g clip-path="url(#clip0_120_506)">
<path d="M55.0229 63.692H13.9771C13.2366 63.692 12.6357 63.0921 12.6357 62.3529V35.7816H1.34137C0.799458 35.7816 0.308517 35.4548 0.101946 34.954C-0.104625 34.4532 0.00805022 33.8773 0.391682 33.4943L33.5503 0.390723C34.0734 -0.131543 34.9239 -0.131543 35.447 0.390723L68.6056 33.4943C68.9893 33.8773 69.1046 34.4532 68.8954 34.954C68.6888 35.4548 68.1979 35.7816 67.6559 35.7816H56.3911L56.3616 42.8308V62.3502C56.3616 63.0894 55.7607 63.6893 55.0203 63.6893L55.0229 63.692ZM15.3184 61.0137H53.6816V42.8255L53.7164 34.4371C53.7191 33.7006 54.3201 33.1033 55.0578 33.1033H64.4206L34.5 3.23238L4.57943 33.1033H13.9797C14.3365 33.1033 14.6773 33.2452 14.9294 33.497C15.1816 33.7488 15.3211 34.0916 15.3211 34.4451L15.3157 36.1458V61.0137H15.3184Z" fill="white"/>
<path d="M45.1854 57.8884H42.5026V41.907H26.4947V57.8884H23.812V40.5679C23.812 39.8287 24.4129 39.2288 25.1534 39.2288H43.844C44.5844 39.2288 45.1854 39.8287 45.1854 40.5679V57.8884Z" fill="white"/>
</g>
<defs>
<clipPath id="clip0_120_506">
<rect width="69" height="63.6923" fill="white"/>
</clipPath>
</defs>
</svg>
