<svg width="75" height="63" viewBox="0 0 75 63" fill="none" xmlns="http://www.w3.org/2000/svg">
<g clip-path="url(#clip0_120_517)">
<path d="M30.2516 62.5602C28.4901 63.5841 27.0376 62.7601 27.0253 60.7308L26.9449 47.5189C26.9325 45.4896 28.3727 44.6472 30.1465 45.6495L41.7385 52.1893C43.5123 53.1917 43.5247 54.8459 41.7632 55.8697L30.2516 62.5571V62.5602Z" fill="white"/>
<path d="M47.1187 17.3319C48.8802 18.3558 50.3327 17.5318 50.3451 15.5025L50.4254 2.29065C50.4378 0.261363 48.9977 -0.581097 47.2238 0.421246L35.6319 6.96107C33.858 7.96341 33.8456 9.61759 35.6071 10.6415L47.1187 17.3289V17.3319Z" fill="white"/>
<path d="M66.211 56.7247H57.8639V53.65H66.211C69.3539 53.65 71.9127 51.1073 71.9127 47.9803V16.1052C71.9127 12.9783 69.3569 10.4355 66.211 10.4355H35.9656V7.36084H66.211C71.0566 7.36084 75.003 11.2841 75.003 16.1052V47.9772C75.003 52.7983 71.0597 56.7216 66.211 56.7216V56.7247Z" fill="white"/>
<path d="M40.7433 56.7247H8.79208C3.9433 56.7247 0 52.8014 0 47.9803V16.1052C0 11.2841 3.9433 7.36084 8.79208 7.36084H19.6238V10.4355H8.79208C5.64918 10.4355 3.09036 12.9783 3.09036 16.1052V47.9772C3.09036 51.1042 5.64918 53.6469 8.79208 53.6469H40.7433V56.7216V56.7247Z" fill="white"/>
</g>
<defs>
<clipPath id="clip0_120_517">
<rect width="75" height="63" fill="white"/>
</clipPath>
</defs>
</svg>
