<svg width="66" height="59" viewBox="0 0 66 59" fill="none" xmlns="http://www.w3.org/2000/svg">
<g clip-path="url(#clip0_120_507)">
<path d="M60.5021 59H5.49794C2.46583 59 0 56.5129 0 53.4546V5.54537C0 2.4871 2.46583 0 5.49794 0H28.0175C31.0496 0 33.5154 2.4871 33.5154 5.54537V7.58053C33.5154 9.10828 34.7497 10.3532 36.2644 10.3532H60.5021C63.5342 10.3532 66 12.8403 66 15.8986V53.4546C66 56.5129 63.5342 59 60.5021 59ZM5.49794 2.77269C3.98326 2.77269 2.74897 4.01762 2.74897 5.54537V53.4546C2.74897 54.9824 3.98326 56.2273 5.49794 56.2273H60.5021C62.0167 56.2273 63.251 54.9824 63.251 53.4546V15.8986C63.251 14.3708 62.0167 13.1259 60.5021 13.1259H36.2644C33.2323 13.1259 30.7665 10.6388 30.7665 7.58053V5.54537C30.7665 4.01762 29.5322 2.77269 28.0175 2.77269H5.49794Z" fill="white"/>
<path d="M65.9918 22.4421H1.37451V25.2148H65.9918V22.4421Z" fill="white"/>
</g>
<defs>
<clipPath id="clip0_120_507">
<rect width="66" height="59" fill="white"/>
</clipPath>
</defs>
</svg>
