<svg width="70" height="70" viewBox="0 0 70 70" fill="none" xmlns="http://www.w3.org/2000/svg">
<path d="M34.9999 44.5999C40.302 44.5999 44.5999 40.302 44.5999 34.9999C44.5999 29.6978 40.302 25.3999 34.9999 25.3999C29.6978 25.3999 25.3999 29.6978 25.3999 34.9999C25.3999 40.302 29.6978 44.5999 34.9999 44.5999Z" stroke="white" stroke-width="4.53" stroke-linecap="round" stroke-linejoin="round"/>
<path d="M59.3917 29.8653L55.879 21.3834L60.6 15.8L54.2 9.4L48.647 14.1454L39.985 10.5832L37.993 3H31.7392L29.7171 10.6836L21.2541 14.2511L15.8 9.4L9.4 15.8L14.0508 21.5243L10.592 30.0282L3 31.8V38.2L10.6836 40.2976L14.2504 48.759L9.4 54.2L15.8 60.6L21.5317 55.929L29.8704 59.3594L31.8 67H38.2L40.1344 59.3622L48.6163 55.8496C50.0301 56.8602 54.2 60.6 54.2 60.6L60.6 54.2L55.8509 48.5981L59.3645 40.1136L66.9997 38.127L67 31.8L59.3917 29.8653Z" stroke="white" stroke-width="4.53" stroke-linecap="round" stroke-linejoin="round"/>
</svg>
