<svg width="67" height="67" viewBox="0 0 67 67" fill="none" xmlns="http://www.w3.org/2000/svg">
<path d="M19.4821 16.8401V18.5901C20.0672 18.5901 20.6137 18.2976 20.9382 17.8108L19.4821 16.8401ZM23.3634 11.0181L21.9073 10.0474V10.0474L23.3634 11.0181ZM43.2008 11.0181L44.6569 10.0474L43.2008 11.0181ZM47.0821 16.8401L45.626 17.8108C45.9506 18.2976 46.497 18.5901 47.0821 18.5901V16.8401ZM39.8121 37.5401C39.8121 41.1465 36.8885 44.0701 33.2821 44.0701V47.5701C38.8215 47.5701 43.3121 43.0795 43.3121 37.5401H39.8121ZM33.2821 44.0701C29.6757 44.0701 26.7521 41.1465 26.7521 37.5401H23.2521C23.2521 43.0795 27.7427 47.5701 33.2821 47.5701V44.0701ZM26.7521 37.5401C26.7521 33.9336 29.6757 31.0101 33.2821 31.0101V27.5101C27.7427 27.5101 23.2521 32.0006 23.2521 37.5401H26.7521ZM33.2821 31.0101C36.8885 31.0101 39.8121 33.9336 39.8121 37.5401H43.3121C43.3121 32.0006 38.8215 27.5101 33.2821 27.5101V31.0101ZM20.9382 17.8108L24.8195 11.9888L21.9073 10.0474L18.026 15.8693L20.9382 17.8108ZM27.9563 10.3101H38.6079V6.81006H27.9563V10.3101ZM41.7447 11.9888L45.626 17.8108L48.5382 15.8693L44.6569 10.0474L41.7447 11.9888ZM38.6079 10.3101C39.8684 10.3101 41.0455 10.94 41.7447 11.9888L44.6569 10.0474C43.3086 8.02488 41.0387 6.81006 38.6079 6.81006V10.3101ZM24.8195 11.9888C25.5187 10.94 26.6958 10.3101 27.9563 10.3101V6.81006C25.5256 6.81006 23.2557 8.02488 21.9073 10.0474L24.8195 11.9888ZM59.1321 27.8801V47.2001H62.6321V27.8801H59.1321ZM49.8421 56.4901H16.7221V59.9901H49.8421V56.4901ZM7.43213 47.2001V27.8801H3.93213V47.2001H7.43213ZM16.7221 56.4901C11.5914 56.4901 7.43213 52.3308 7.43213 47.2001H3.93213C3.93213 54.2638 9.65841 59.9901 16.7221 59.9901V56.4901ZM59.1321 47.2001C59.1321 52.3308 54.9729 56.4901 49.8421 56.4901V59.9901C56.9058 59.9901 62.6321 54.2638 62.6321 47.2001H59.1321ZM49.8421 18.5901C54.9729 18.5901 59.1321 22.7493 59.1321 27.8801H62.6321C62.6321 20.8163 56.9058 15.0901 49.8421 15.0901V18.5901ZM16.7221 15.0901C9.65841 15.0901 3.93213 20.8163 3.93213 27.8801H7.43213C7.43213 22.7493 11.5914 18.5901 16.7221 18.5901V15.0901ZM16.7221 18.5901H19.4821V15.0901H16.7221V18.5901ZM49.8421 15.0901H47.0821V18.5901H49.8421V15.0901Z" fill="#000E08" fill-opacity="0.5"/>
<circle cx="33.282" cy="16.8401" r="2.76" fill="#000E08" fill-opacity="0.5"/>
</svg>
