<svg width="72" height="72" viewBox="0 0 72 72" fill="none" xmlns="http://www.w3.org/2000/svg">
<circle cx="36" cy="36" r="36" fill="#0036B5"/>
<g clip-path="url(#clip0_122_568)">
<path d="M45.0306 47.0591H26.8509C25.6575 47.0591 24.4932 46.1607 24.1991 45.013L20.069 28.8773C19.9112 28.2617 20.0291 27.6445 20.3907 27.1824C20.7522 26.7203 21.3267 26.4558 21.9671 26.4558H50.3434C50.9868 26.4558 51.5597 26.7218 51.9151 27.1855C52.2706 27.6491 52.3778 28.2678 52.2062 28.8834L47.7115 45.0358C47.3959 46.1698 46.2194 47.0591 45.0336 47.0591H45.0306ZM21.9655 27.9774C21.8001 27.9774 21.6699 28.0276 21.5994 28.1173C21.5289 28.207 21.5121 28.3438 21.5534 28.5034L25.6851 44.6391C25.8061 45.1103 26.3622 45.539 26.8525 45.539H45.0321C45.5284 45.539 46.1014 45.1058 46.2331 44.6315L50.7279 28.479C50.7708 28.324 50.76 28.1917 50.6942 28.1066C50.6298 28.023 50.5042 27.9759 50.3418 27.9759H21.9655V27.9774Z" fill="white"/>
<path d="M51.4587 27.1125L50.0891 26.4315L53.1116 20.4545L57.853 20L58.0001 21.5125L54.1013 21.8879L51.4587 27.1125Z" fill="white"/>
<path d="M27.9494 55C25.9839 55 24.3845 53.413 24.3845 51.4628C24.3845 49.5125 25.9839 47.9255 27.9494 47.9255C29.9149 47.9255 31.5142 49.5125 31.5142 51.4628C31.5142 53.413 29.9149 55 27.9494 55ZM27.9494 49.4456C26.828 49.4456 25.9165 50.3501 25.9165 51.4628C25.9165 52.5755 26.828 53.4799 27.9494 53.4799C29.0708 53.4799 29.9823 52.5755 29.9823 51.4628C29.9823 50.3501 29.0708 49.4456 27.9494 49.4456Z" fill="white"/>
<path d="M44.1344 55C42.1689 55 40.5696 53.413 40.5696 51.4628C40.5696 49.5125 42.1689 47.9255 44.1344 47.9255C46.0999 47.9255 47.6993 49.5125 47.6993 51.4628C47.6993 53.413 46.0999 55 44.1344 55ZM44.1344 49.4456C43.013 49.4456 42.1015 50.3501 42.1015 51.4628C42.1015 52.5755 43.013 53.4799 44.1344 53.4799C45.2558 53.4799 46.1673 52.5755 46.1673 51.4628C46.1673 50.3501 45.2558 49.4456 44.1344 49.4456Z" fill="white"/>
<path d="M44.6905 31.4736H27.6184V32.9937H44.6905V31.4736Z" fill="white"/>
<path d="M43.644 36.3136H28.6631V37.8337H43.644V36.3136Z" fill="white"/>
<path d="M41.9712 40.7385H30.3345V42.2586H41.9712V40.7385Z" fill="white"/>
</g>
<defs>
<clipPath id="clip0_122_568">
<rect width="38" height="35" fill="white" transform="translate(20 20)"/>
</clipPath>
</defs>
</svg>
