<svg width="65" height="65" viewBox="0 0 65 65" fill="none" xmlns="http://www.w3.org/2000/svg">
<g clip-path="url(#clip0_104_1923)">
<path d="M32.5 65C14.5819 65 0 50.3924 0 32.4291C0 14.4657 14.5819 0 32.5 0C50.4181 0 65 14.5521 65 32.4291C65 50.3061 50.4181 65 32.5 65ZM32.5 5.99601C17.8812 5.99601 5.98295 17.8523 5.98295 32.4291C5.98295 47.0058 17.8812 59.004 32.5 59.004C47.1188 59.004 59.017 47.086 59.017 32.4291C59.017 17.7721 47.125 5.99601 32.5 5.99601Z" fill="#0036B5"/>
<path d="M24.9853 43.1009C24.222 43.1009 23.4649 42.8109 22.8802 42.2311C21.7107 41.0652 21.6984 39.1652 22.8617 37.987L37.893 22.781C39.0563 21.609 40.9522 21.5966 42.1278 22.7625C43.2973 23.9284 43.3096 25.8284 42.1463 27.0066L27.115 42.2126C26.5303 42.8048 25.7609 43.1009 24.9853 43.1009Z" fill="#0036B5"/>
<path d="M40.0227 43.1009C39.2533 43.1009 38.4839 42.8048 37.893 42.2126L22.8617 27.0066C21.6984 25.8346 21.7107 23.9346 22.8802 22.7625C24.0558 21.5966 25.9517 21.609 27.115 22.781L42.1463 37.987C43.3096 39.159 43.2973 41.059 42.1278 42.2311C41.5431 42.8109 40.7798 43.1009 40.0227 43.1009Z" fill="#0036B5"/>
</g>
<defs>
<clipPath id="clip0_104_1923">
<rect width="65" height="65" fill="white"/>
</clipPath>
</defs>
</svg>
