<svg width="71" height="70" viewBox="0 0 71 70" fill="none" xmlns="http://www.w3.org/2000/svg">
<g clip-path="url(#clip0_110_437)">
<path d="M35.5 70C15.9279 70 0 54.2688 0 34.9236C0 15.5784 15.9279 0 35.5 0C55.0721 0 71 15.6714 71 34.9236C71 54.1758 55.0721 70 35.5 70ZM35.5 6.45725C19.5317 6.45725 6.53523 19.2256 6.53523 34.9236C6.53523 50.6216 19.5317 63.5428 35.5 63.5428C51.4683 63.5428 64.4648 50.708 64.4648 34.9236C64.4648 19.1392 51.475 6.45725 35.5 6.45725Z" fill="#0036B5"/>
<path d="M27.2905 46.4162C26.4568 46.4162 25.6298 46.1039 24.9911 45.4795C23.7136 44.2239 23.7002 42.1778 24.9709 40.9089L41.3897 24.5333C42.6604 23.2711 44.7312 23.2578 46.0154 24.5134C47.2929 25.7689 47.3063 27.815 46.0356 29.0839L29.6169 45.4595C28.9781 46.0973 28.1377 46.4162 27.2905 46.4162Z" fill="#0036B5"/>
<path d="M43.716 46.4162C42.8756 46.4162 42.0351 46.0973 41.3897 45.4595L24.9709 29.0839C23.7002 27.8217 23.7136 25.7756 24.9911 24.5134C26.2753 23.2578 28.3461 23.2711 29.6169 24.5333L46.0356 40.9089C47.3063 42.1711 47.2929 44.2172 46.0154 45.4795C45.3767 46.1039 44.543 46.4162 43.716 46.4162Z" fill="#0036B5"/>
</g>
<defs>
<clipPath id="clip0_110_437">
<rect width="71" height="70" fill="white"/>
</clipPath>
</defs>
</svg>
