<svg width="59" height="58" viewBox="0 0 59 58" fill="none" xmlns="http://www.w3.org/2000/svg">
<g clip-path="url(#clip0_122_1617)">
<path d="M47.3807 58H9.42451C4.31419 58 0 53.75 0 48.7104V11.4463C0 6.32723 4.22812 2.15674 9.42451 2.15674H28.5263C29.9734 2.15674 31.1407 3.30667 31.1407 4.73216C31.1407 6.15765 29.9734 7.30758 28.5263 7.30758H9.42451C7.14907 7.30758 5.22867 9.19941 5.22867 11.441V48.7104C5.22867 50.952 7.14907 52.8491 9.42451 52.8491H47.3807C49.6938 52.8491 51.5766 50.9891 51.5766 48.7104V30.0148C51.5766 28.5893 52.7439 27.4393 54.1909 27.4393C55.6379 27.4393 56.8053 28.5893 56.8053 30.0148V48.7104C56.8053 53.8348 52.5771 58 47.3807 58Z" fill="#0036B5"/>
<path d="M26.9451 44.6991H16.2403C14.7933 44.6991 13.626 43.5491 13.626 42.1236V31.4616C13.626 30.778 13.9003 30.1262 14.3952 29.6387L43.7069 0.757907C44.7182 -0.243646 46.3697 -0.248946 47.3971 0.747308L58.2256 11.2928C58.7205 11.775 59.0002 12.4321 59.0002 13.1157C59.0002 13.7993 58.7259 14.4617 58.231 14.9439L28.7902 43.9466C28.3007 44.4288 27.639 44.7044 26.9397 44.7044L26.9451 44.6991ZM18.8546 39.5482H25.8585L52.6742 13.1369L45.5682 6.21611L18.8546 32.5321V39.5535V39.5482Z" fill="#0036B5"/>
</g>
<defs>
<clipPath id="clip0_122_1617">
<rect width="59" height="58" fill="white"/>
</clipPath>
</defs>
</svg>
