<svg version="1.2" xmlns="http://www.w3.org/2000/svg" viewBox="0 0 888 773" width="888" height="773">
	<title>undraw_happy_music_g6wc-svg</title>
	<style>
		.s0 { fill: #e6e6e6 } 
		.s1 { fill: #ff6584 } 
		.s2 { fill: #3f3d56 } 
		.s3 { fill: #f50057 } 
		.s4 { fill: #ffffff } 
		.s5 { opacity: .3;fill: #cdccd5 } 
	</style>
	<path id="Layer" class="s0" d="m887.8 763.3l-635.5 9.5-252.3-44.7h393.8l494 35.2z"/>
	<path id="Layer" class="s1" d="m731.8 203.3c-56.2 0-101.6-45.4-101.6-101.6 0-56.3 45.4-101.7 101.6-101.7 56.2 0 101.7 45.4 101.7 101.7 0 56.2-45.5 101.6-101.7 101.6z"/>
	<path id="Layer" class="s2" d="m179.8 733.4c0 0 1.5-31.1 32-27.5"/>
	<path id="Layer" class="s3" d="m171.2 703.8c-8.4 0-15.2-6.8-15.2-15.3 0-8.4 6.8-15.2 15.2-15.2 8.5 0 15.3 6.8 15.3 15.2 0 8.5-6.8 15.3-15.3 15.3z"/>
	<path id="Layer" class="s2" d="m168.7 714.2h4.4v30.2h-4.4z"/>
	<path id="Layer" class="s2" d="m682.3 738.8c0 0 1.5-31.2 32-27.6"/>
	<path id="Layer" class="s3" d="m673.7 709.1c-8.5 0-15.3-6.8-15.3-15.3 0-8.4 6.8-15.2 15.3-15.2 8.4 0 15.2 6.8 15.2 15.2 0 8.5-6.8 15.3-15.2 15.3z"/>
	<path id="Layer" class="s2" d="m671.2 719.5h4.3v30.2h-4.3z"/>
	<path id="Layer" class="s2" d="m755.7 744.1c0 0 1.5-31.2 32-27.6"/>
	<path id="Layer" class="s3" d="m747.1 714.4c-8.4 0-15.2-6.8-15.2-15.2 0-8.5 6.8-15.3 15.2-15.3 8.5 0 15.3 6.8 15.3 15.3 0 8.4-6.8 15.2-15.3 15.2z"/>
	<path id="Layer" class="s2" d="m744.6 724.9h4.3v30.1h-4.3z"/>
	<path id="Layer" class="s2" d="m300.1 718.5c0 0 1.5-31.1 32-27.5"/>
	<path id="Layer" class="s3" d="m291.5 688.9c-8.4 0-15.2-6.8-15.2-15.3 0-8.4 6.8-15.2 15.2-15.2 8.5 0 15.3 6.8 15.3 15.2 0 8.5-6.8 15.3-15.3 15.3z"/>
	<path id="Layer" class="s2" d="m289 699.3h4.3v30.2h-4.3z"/>
	<path id="Layer" class="s2" d="m73.4 723.9c0 0 1.5-31.2 32-27.6"/>
	<path id="Layer" class="s3" d="m64.8 694.2c-8.5 0-15.3-6.8-15.3-15.3 0-8.4 6.8-15.2 15.3-15.2 8.4 0 15.2 6.8 15.2 15.2 0 8.5-6.8 15.3-15.2 15.3z"/>
	<path id="Layer" class="s2" d="m62.3 704.6h4.3v30.2h-4.3z"/>
	<path id="Layer" class="s3" d="m442.3 669.7c-91.9 0-166.3-74.3-166.3-166.2 0-91.9 74.4-166.2 166.3-166.2 91.9 0 166.2 74.3 166.2 166.2 0 91.9-74.3 166.2-166.2 166.2z"/>
	<path id="Layer" class="s4" d="m326 463.3c7.4-18.6 25.4-30.7 45.4-30.7 20 0 37.9 12.1 45.4 30.7 7.4 18.5 2.8 39.7-11.7 53.5-4.1-4.9-9.2-8.9-15.1-11.6-5.8-2.7-12.2-4.2-18.6-4.2-6.5 0-12.8 1.5-18.6 4.2-5.9 2.7-11 6.7-15.2 11.6-14.4-13.8-19-35-11.6-53.5z"/>
	<path id="Layer" class="s4" d="m458 463.3c7.4-18.6 25.4-30.7 45.4-30.7 20 0 37.9 12.1 45.4 30.7 7.4 18.5 2.8 39.7-11.7 53.5-4.1-4.9-9.2-8.9-15.1-11.6-5.8-2.7-12.2-4.2-18.6-4.2-6.4 0-12.8 1.5-18.6 4.2-5.9 2.7-11 6.7-15.2 11.6-14.4-13.8-19-35-11.6-53.5z"/>
	<path id="Layer" class="s2" d="m354.7 481.6c-9.3 0-16.8-7.5-16.8-16.8 0-9.3 7.5-16.8 16.8-16.8 9.3 0 16.8 7.5 16.8 16.8 0 9.3-7.5 16.8-16.8 16.8z"/>
	<path id="Layer" class="s2" d="m486.7 481.6c-9.3 0-16.8-7.5-16.8-16.8 0-9.3 7.5-16.8 16.8-16.8 9.3 0 16.8 7.5 16.8 16.8 0 9.3-7.5 16.8-16.8 16.8z"/>
	<path id="Layer" class="s5" d="m322.5 564.6c-10.8 0-19.6-8.7-19.6-19.6 0-10.8 8.8-19.5 19.6-19.5 10.8 0 19.6 8.7 19.6 19.5 0 10.9-8.8 19.6-19.6 19.6z"/>
	<path id="Layer" class="s5" d="m547.4 564.6c-10.8 0-19.6-8.7-19.6-19.6 0-10.8 8.8-19.5 19.6-19.5 10.8 0 19.5 8.7 19.5 19.5 0 10.9-8.7 19.6-19.5 19.6z"/>
	<path id="Layer" class="s2" d="m434.9 505.9l9.8 39.1-24.4 24.5 14.6-63.6z"/>
	<path id="Layer" class="s2" d="m510.3 750.4l-16.6-14 0.3 14h-5.1l-0.4-14.8-22.5 14.8h-9.4l31.7-20.9-1.2-43.8-1-33 5.2-0.2 0.9 33.2 1.3 43.8 24.8 20.9h-8z"/>
	<path id="Layer" class="s2" d="m432.1 750.4l-16.7-14 0.4 14h-5.1l-0.5-14.8-22.4 14.8h-9.5l31.8-20.9-1.3-43.8-0.9-33 5.2-0.2 0.9 33.2 1.2 43.8 24.9 20.9h-8z"/>
	<path id="Layer" class="s2" d="m459.4 349.5c0 13.5-6.6 24.4-14.7 24.4-5.8 0-10.8-5.7-13.1-13.9-2.7 5.5-6.8 9-11.3 9-6.1 0-11.3-6.1-13.5-14.8q-0.2 0-0.3 0-0.2 0.1-0.3 0.1-0.1 0-0.3 0-0.1 0.1-0.3 0.1c-8.1 0-14.7-11-14.7-24.5 0-13.5 6.6-24.4 14.7-24.4 6.1 0 11.3 6.1 13.5 14.8q0.1 0 0.3 0 0.1-0.1 0.3-0.1 0.1 0 0.3 0 0.1 0 0.3-0.1c5.8 0 10.8 5.7 13.1 13.9 2.7-5.4 6.8-9 11.3-9 8.1 0 14.7 11 14.7 24.5z"/>
	<path id="Layer" class="s1" d="m623.9 497h-7.7c0-98.4-80.1-178.4-178.4-178.4-98.4 0-178.5 80-178.5 178.4h-7.7c0-102.7 83.5-186.2 186.2-186.2 102.6 0 186.1 83.5 186.1 186.2z"/>
	<path id="Layer" class="s2" d="m598.3 444.2c6.4 0 12.8 1.3 18.7 3.8 5.9 2.4 11.3 6 15.9 10.6 4.5 4.5 8.1 9.9 10.6 15.8 2.4 6 3.7 12.3 3.7 18.7v24.5c0 6.4-1.3 12.8-3.7 18.7-2.5 5.9-6.1 11.3-10.6 15.9-4.6 4.5-10 8.1-15.9 10.6-5.9 2.4-12.3 3.7-18.7 3.7v-122.3c-598.3-444.2-598.3-444.2-598.3-444.2z"/>
	<path id="Layer" class="s2" d="m286.3 566.5c-6.5 0-12.8-1.3-18.8-3.7-5.9-2.5-11.3-6.1-15.8-10.6-4.6-4.6-8.2-10-10.6-15.9-2.5-5.9-3.7-12.3-3.7-18.7v-24.5c0-6.4 1.2-12.7 3.7-18.7 2.4-5.9 6-11.3 10.6-15.8 4.5-4.6 9.9-8.2 15.8-10.6 6-2.5 12.3-3.8 18.8-3.8z"/>
	<path id="Layer" class="s2" d="m131.7 368z"/>
	<path id="Layer" class="s2" d="m173.2 353.8c-0.9 2.5-3.2 3.9-4.9 3.2-1.8-0.7-3.6-3.1-2.7-5.6q0.1-0.1 0.2-0.3 0-0.1 0.1-0.2 0-0.1 0.1-0.3 0.1-0.1 0.1-0.2l1.4-3.3-0.1-0.1-14.6-6.2-0.2-0.1-7.2 18.1 1.6 0.6 7.1-18 1.1 0.4-7.2 18 12.5 4.8 3.6 1.6c1.8 0.7 2.7 3.8 1.7 6.3-1 2.5-3.2 3.9-4.9 3.2-1.8-0.7-3.6-3.1-2.7-5.6q0.1-0.2 0.1-0.3 0.1-0.1 0.2-0.2 0-0.1 0.1-0.3 0.1-0.1 0.1-0.2l1.4-3.3-0.1-0.1-20.8-8.8 7.4-18.7 0.4-1.1 5.5 2.4 15.4 6.5 3.6 1.5c1.8 0.7 2.7 3.8 1.7 6.3z"/>
	<path id="Layer" fill-rule="evenodd" class="s2" d="m214.4 382.6l-0.1 0.1-5-2.1c-2.4-1.1-3.7-5.4-2.4-8.8 1.4-3.5 4.5-5.5 6.9-4.5 2.5 1 5 4.4 3.7 7.8q-0.1 0.2-0.2 0.4 0 0.2-0.1 0.3-0.1 0.2-0.2 0.3-0.1 0.2-0.2 0.4l-1.9 4.5 16.8 6.8-0.9-6.3c0 0 0.5-5.3-5.9-6.9l2.8-0.4q0.4-0.1 0.7 0 0.4 0 0.7 0.1 0.4 0 0.7 0.1 0.4 0.1 0.7 0.3l1.8-0.4c0 0 5.1-0.9 5.3 5.3 0 0-1.5 9.4 6.1 13.8zm20.6-2.1q-0.1-1-0.5-1.8-0.5-0.9-1.1-1.6-0.6-0.7-1.4-1.2 0.3 0.4 0.5 0.8 0.2 0.3 0.3 0.8 0.1 0.4 0.2 0.8 0.1 0.4 0.1 0.9-0.1 1.2 0 2.4 0.1 1.2 0.5 2.4 0.3 1.2 0.8 2.3 0.5 1.1 1.2 2.1l-0.5-6.1q0.1-0.9-0.1-1.8z"/>
	<path id="Layer" class="s2" d="m117.7 313.2c-1.4 3.5-4.5 5.5-6.9 4.5-2.5-0.9-5-4.4-3.7-7.8q0.1-0.2 0.2-0.4 0-0.1 0.1-0.3 0.1-0.2 0.2-0.3 0.1-0.2 0.2-0.4l2-4.6-0.2-0.1-28.9-12.2c8.4 2 13.8-6 13.8-6 4.4-4.3 7.5-0.2 7.5-0.2l1.7 2.5q-1.1-0.8-2.4-1.1-1.3-0.2-2.6 0-1.2 0.2-2.4 0.8-1.1 0.7-1.9 1.8l-5.3 4.7 21.2 8.2 5 2.2c2.4 1 3.7 5.3 2.4 8.7z"/>
	<path id="Layer" class="s2" d="m192.6 277.4l-28.9-12.2 10.8-27.5 7.7 3.2 0.7 0.3 20.7 8.8 5 2.1c2.4 1 3.7 5.4 2.4 8.8-1.4 3.4-4.5 5.4-6.9 4.4-2.5-0.9-5-4.3-3.7-7.8q0.1-0.2 0.2-0.3 0-0.2 0.1-0.4 0.1-0.1 0.2-0.3 0.1-0.2 0.2-0.3l1.9-4.6-0.1-0.2-20.4-8.6-0.2-0.1-10 25.1 2.2 0.8 9.9-25 1.5 0.6-9.9 25 17.3 6.7 5 2.1c2.4 1.1 3.7 5.4 2.4 8.8-1.4 3.5-4.5 5.5-6.9 4.5-2.5-1-5-4.4-3.7-7.8q0.1-0.2 0.2-0.4 0.1-0.1 0.1-0.3 0.1-0.2 0.2-0.3 0.1-0.2 0.2-0.4l2-4.6z"/>
	<path id="Layer" class="s2" d="m105.1 152.1c-2.4 5.9-7.7 9.4-11.9 7.7-4.2-1.7-8.6-7.6-6.3-13.5q0.2-0.3 0.3-0.6 0.1-0.3 0.3-0.6 0.1-0.3 0.3-0.5 0.1-0.3 0.3-0.6l3.4-7.9-0.3-0.2-49.8-21.1c14.6 3.5 23.9-10.2 23.9-10.2 7.5-7.5 12.8-0.4 12.8-0.4l2.9 4.2c-9.8-5.9-15.9 2.6-15.9 2.6l-9.2 8.2 36.4 14.1 8.8 3.7c4 1.8 6.3 9.2 4 15.1z"/>
	<path id="Layer" fill-rule="evenodd" class="s2" d="m57.8 230l-0.1 0.3-12.1-5c-5.7-2.5-8.8-12.9-5.6-21 3.2-8.3 10.6-13.1 16.5-10.8 5.8 2.4 12 10.6 8.7 18.8q-0.2 0.4-0.4 0.8-0.1 0.4-0.4 0.8-0.2 0.4-0.4 0.8-0.2 0.4-0.4 0.8l-4.7 10.9 40.3 16.2-2.2-15c0 0 1.3-12.9-14.1-16.5l6.8-1.1q0.8-0.1 1.7 0 0.8 0 1.6 0.2 0.9 0.1 1.7 0.4 0.8 0.3 1.6 0.6l4.4-1c0 0 12.2-2.1 12.6 12.7 0 0-3.6 22.6 14.5 33zm42.1-15.9q0.7 0.8 1.1 1.8 0.5 0.9 0.9 1.9 0.3 0.9 0.5 2 0.2 1 0.2 2c0 0-1.5 12 6.1 22.1l-1.3-14.4c0 0 1.3-10.2-7.5-15.4z"/>
</svg>