<svg width="72" height="53" viewBox="0 0 72 53" fill="none" xmlns="http://www.w3.org/2000/svg">
<g clip-path="url(#clip0_110_429)">
<path d="M36.0034 52.3869C20.0776 52.3869 6.04034 42.7258 0.224979 27.7776C-0.0749929 27.0145 -0.0749929 26.1629 0.224979 25.3998C2.88382 18.4367 7.622 12.2639 13.5737 8.01246C15.0668 6.95641 17.1393 7.30388 18.2028 8.78235C19.2664 10.2744 18.9187 12.3388 17.4324 13.4085C12.8715 16.6652 9.16959 21.305 6.90616 26.5717C11.9852 38.2768 23.2682 45.7645 36.0102 45.7645C42.78 45.7645 49.1885 43.6933 54.5539 39.7757C56.0333 38.6856 58.1059 39.0262 59.183 40.4979C60.2602 41.9763 59.9398 44.0476 58.4604 45.124C51.9496 49.8728 44.1845 52.3869 36.0034 52.3869ZM64.2144 37.902C63.519 37.902 62.8236 37.684 62.2305 37.2411C60.7647 36.1442 60.4647 34.0662 61.5692 32.6082C62.9668 30.7482 64.1735 28.6838 65.1075 26.5648C60.0489 14.7848 48.7658 7.24256 36.0102 7.24256C32.956 7.24256 30.0108 7.66498 27.2497 8.48938C25.4839 9.02763 23.65 8.01927 23.1251 6.26827C22.6001 4.51728 23.5955 2.67089 25.3476 2.14628C28.7223 1.13792 32.3151 0.620117 36.0102 0.620117C51.9633 0.620117 66.0074 10.3426 71.7887 25.393C72.0818 26.1629 72.0818 27.0145 71.775 27.7844C70.5819 30.8504 68.8776 33.8959 66.8664 36.5735C66.2187 37.4455 65.2234 37.902 64.2144 37.902Z" fill="#0036B5"/>
<path d="M36.0025 40.6817C28.1351 40.6817 21.7402 34.359 21.7402 26.5851C21.7402 23.4442 22.7697 20.4123 24.7127 17.8233C25.8035 16.3517 27.8965 16.0723 29.3486 17.1624C30.8144 18.2594 31.1143 20.3374 30.0099 21.7954C29.26 22.797 28.3669 24.4458 28.3669 26.5851C28.3669 30.7071 31.7893 34.0592 35.9957 34.0592C38.3341 34.0592 40.5362 32.9895 42.0497 31.1227C43.2155 29.7056 45.2812 29.4807 46.7129 30.6322C48.1377 31.7836 48.3559 33.8684 47.2037 35.2924C44.429 38.7126 40.3385 40.6817 35.9957 40.6817H36.0025Z" fill="#0036B5"/>
<path d="M66.0627 52.9997C65.3537 52.9997 64.6379 52.7749 64.0379 52.3116L3.91407 5.94085C2.46194 4.82348 2.19606 2.74545 3.31413 1.29423C4.43903 -0.163795 6.52519 -0.422697 7.96369 0.69467L68.0875 47.0722C69.5397 48.1896 69.8056 50.2676 68.6875 51.7188C68.033 52.5705 67.0513 53.0065 66.0627 53.0065V52.9997Z" fill="#0036B5"/>
<path d="M46.0248 25.4273C44.7908 25.4273 43.6114 24.7391 43.0319 23.5468C41.8047 20.9851 39.3777 19.2613 36.5484 18.9343C34.7281 18.7299 33.426 17.0811 33.6305 15.2688C33.8419 13.4496 35.5462 12.1619 37.2984 12.3527C42.4047 12.9386 46.7884 16.0523 49.0109 20.6785C49.8017 22.3273 49.1063 24.3099 47.4565 25.1002C46.9929 25.3183 46.5088 25.4273 46.0248 25.4273Z" fill="#0036B5"/>
</g>
<defs>
<clipPath id="clip0_110_429">
<rect width="72" height="53" fill="white"/>
</clipPath>
</defs>
</svg>
