<svg width="24" height="24" viewBox="0 0 24 24" fill="none" xmlns="http://www.w3.org/2000/svg">
<path d="M12 23C18.0751 23 23 18.0751 23 12C23 5.92487 18.0751 1 12 1C5.92487 1 1 5.92487 1 12C1 18.0751 5.92487 23 12 23Z" stroke="#0036B5" stroke-width="1.83" stroke-linecap="round" stroke-linejoin="round"/>
<path d="M1.55005 12.5498L7.60005 14.7498L6.50005 18.5998L7.60005 21.8998" stroke="#0036B5" stroke-width="1.83" stroke-linecap="round" stroke-linejoin="round"/>
<path d="M17.5 21.3498L16.95 18.5998L14.2 17.4998V13.6498L17.5 12.5498L22.45 13.0998" stroke="#0036B5" stroke-width="1.83" stroke-linecap="round" stroke-linejoin="round"/>
<path d="M19.7 4.85059L19.15 6.50059L15.3 7.05059V10.3506L18.05 9.25059H20.25L22.45 10.3506" stroke="#0036B5" stroke-width="1.83" stroke-linecap="round" stroke-linejoin="round"/>
<path d="M1.55005 10.3506L4.30005 8.15059L7.05005 7.60059L9.25005 4.30059L8.15005 2.10059" stroke="#0036B5" stroke-width="1.83" stroke-linecap="round" stroke-linejoin="round"/>
</svg>
