<svg width="113" height="113" viewBox="0 0 113 113" fill="none" xmlns="http://www.w3.org/2000/svg">
<circle cx="56.5" cy="56.5" r="56.5" fill="#0036B5"/>
<g clip-path="url(#clip0_128_236)">
<path d="M56.4796 72.3022C56.2371 72.3022 55.9945 72.2218 55.7924 72.0207C55.2669 71.5381 43.1396 59.9557 43.1396 46.0408C43.1396 39.0029 46.6565 31.4824 56.4796 31.4824C66.3027 31.4824 69.86 39.0029 69.86 46.0006C69.86 59.9557 57.7328 71.4979 57.2072 71.9805C57.0051 72.1816 56.7626 72.262 56.52 72.262L56.4796 72.3022ZM56.4796 33.5335C46.2523 33.5335 45.1609 42.3007 45.1609 46.0408C45.1609 57.221 53.9329 67.1947 56.4796 69.849C59.0668 67.1947 67.7984 57.221 67.7984 46.0408C67.7984 42.2605 66.7069 33.5335 56.4796 33.5335Z" fill="white" stroke="white" stroke-width="0.25" stroke-miterlimit="10"/>
<path d="M56.4793 54.1245C51.9114 54.1245 48.1924 50.4246 48.1924 45.8801C48.1924 41.3357 51.9114 37.6357 56.4793 37.6357C61.0473 37.6357 64.7663 41.3357 64.7663 45.8801C64.7663 50.4246 61.0473 54.1245 56.4793 54.1245ZM56.4793 39.6466C53.0433 39.6466 50.2136 42.4215 50.2136 45.8801C50.2136 49.3388 53.0029 52.1137 56.4793 52.1137C59.9558 52.1137 62.7451 49.3388 62.7451 45.8801C62.7451 42.4215 59.9558 39.6466 56.4793 39.6466Z" fill="white" stroke="white" stroke-width="0.25" stroke-miterlimit="10"/>
<path d="M85.4643 82.5171H27.5366C27.2132 82.5171 26.9302 82.3562 26.7281 82.1149C26.526 81.8736 26.4855 81.5519 26.5664 81.2301L35.5405 49.9819C35.6618 49.5395 36.0661 49.258 36.5107 49.258H40.7957C41.3616 49.258 41.8063 49.7004 41.8063 50.2634C41.8063 50.8264 41.3616 51.2688 40.7957 51.2688H37.2788L28.8706 80.466H84.1303L75.7221 51.2286H71.801C71.235 51.2286 70.7904 50.7862 70.7904 50.2232C70.7904 49.6602 71.235 49.2178 71.801 49.2178H76.4902C76.9348 49.2178 77.3391 49.4993 77.4604 49.9417L86.4345 81.1899C86.5154 81.5117 86.4345 81.8334 86.2728 82.0747C86.0707 82.316 85.7877 82.4769 85.4643 82.4769V82.5171Z" fill="white" stroke="white" stroke-width="0.25" stroke-miterlimit="10"/>
</g>
<defs>
<clipPath id="clip0_128_236">
<rect width="61" height="52" fill="white" transform="translate(26 31)"/>
</clipPath>
</defs>
</svg>
