<svg width="60" height="71" viewBox="0 0 60 71" fill="none" xmlns="http://www.w3.org/2000/svg">
<g clip-path="url(#clip0_122_1832)">
<path d="M50.5127 71H9.48733C4.256 71 0 66.7958 0 61.6281V9.37189C0 4.20421 4.256 0 9.48733 0H36.6329C37.5128 0 38.3517 0.343614 38.9724 0.94999L59.0247 20.6101C59.6522 21.2232 60 22.0654 60 22.9345V61.6348C60 66.8025 55.744 71.0067 50.5127 71.0067V71ZM9.48733 6.54887C7.93907 6.54887 6.63635 7.84247 6.63635 9.36515V61.6281C6.63635 63.1575 7.94589 64.4444 9.48733 64.4444H50.5127C52.0882 64.4444 53.3705 63.1777 53.3705 61.6281V24.2955L35.2688 6.54887H9.48733Z" fill="#0036B5"/>
<path d="M56.6854 26.3572H42.9557C37.7312 26.3572 33.3184 21.998 33.3184 16.8371V3.27444C33.3184 1.46204 34.7984 0 36.6331 0C38.4678 0 39.9479 1.46204 39.9479 3.27444V16.8371C39.9479 18.3665 41.4075 19.8083 42.9557 19.8083H56.6854C58.5201 19.8083 60.0002 21.2704 60.0002 23.0827C60.0002 24.8951 58.5201 26.3572 56.6854 26.3572Z" fill="#0036B5"/>
<path d="M37.4034 45.2492H22.6029C20.7681 45.2492 19.2881 43.7871 19.2881 41.9748C19.2881 40.1624 20.7681 38.7003 22.6029 38.7003H37.4034C39.2381 38.7003 40.7181 40.1624 40.7181 41.9748C40.7181 43.7871 39.2381 45.2492 37.4034 45.2492Z" fill="#0036B5"/>
</g>
<defs>
<clipPath id="clip0_122_1832">
<rect width="60" height="71" fill="white"/>
</clipPath>
</defs>
</svg>
