<?xml version="1.0" standalone="no"?>
<!DOCTYPE svg PUBLIC "-//W3C//DTD SVG 20010904//EN"
 "http://www.w3.org/TR/2001/REC-SVG-20010904/DTD/svg10.dtd">
<svg version="1.0" xmlns="http://www.w3.org/2000/svg"
 width="512.000000pt" height="512.000000pt" viewBox="0 0 512.000000 512.000000"
 preserveAspectRatio="xMidYMid meet">

<g transform="translate(0.000000,512.000000) scale(0.100000,-0.100000)"
fill="#000000" stroke="none">
<path d="M2400 4834 c-194 -17 -430 -66 -595 -124 -204 -72 -471 -218 -645
-353 -324 -252 -590 -614 -735 -1002 -95 -254 -139 -504 -139 -795 0 -378 73
-688 240 -1021 225 -450 584 -804 1039 -1025 233 -112 431 -174 684 -211 157
-23 465 -23 622 0 926 136 1669 800 1895 1693 53 213 68 332 68 564 0 232 -15
351 -68 564 -162 637 -599 1180 -1191 1474 -219 109 -456 183 -696 217 -112
16 -390 27 -479 19z m263 -268 c168 -60 311 -222 452 -511 59 -121 135 -322
135 -357 0 -17 -86 -23 -505 -34 -218 -6 -863 10 -874 22 -8 8 58 200 110 323
124 289 315 508 489 562 41 12 152 9 193 -5z m-719 -103 c-128 -196 -225 -394
-290 -593 -25 -80 -48 -150 -49 -156 -3 -12 -73 -6 -405 32 -124 14 -231 29
-237 33 -16 9 36 73 165 205 155 157 314 274 513 376 90 46 289 129 313 130 4
0 0 -12 -10 -27z m1324 -9 c196 -73 398 -189 562 -321 79 -64 279 -265 318
-320 l23 -32 -23 -6 c-49 -11 -419 -53 -597 -67 l-33 -3 -47 145 c-77 235
-146 385 -250 545 -25 39 -50 76 -54 83 -11 17 -7 16 101 -24z m-2321 -933
c70 -11 218 -29 328 -41 292 -31 269 -24 261 -68 -35 -203 -59 -406 -72 -614
l-6 -108 -460 0 -459 0 7 53 c25 210 59 360 121 527 48 128 120 270 137 270 8
0 72 -9 143 -19z m3427 -68 c105 -210 167 -432 200 -710 l7 -53 -459 0 -460 0
-6 108 c-13 207 -39 428 -72 614 -8 44 -31 37 261 69 110 11 252 29 315 39
182 27 163 33 214 -67z m-1979 -39 c301 -4 528 -3 684 5 128 7 235 10 238 7
20 -20 83 -532 83 -673 l0 -63 -840 0 -840 0 0 63 c0 131 40 484 72 630 l10
49 72 -6 c39 -3 274 -8 521 -12z m-931 -1091 c13 -208 39 -429 72 -615 8 -43
33 -37 -260 -68 -109 -12 -258 -30 -330 -41 -72 -10 -137 -19 -143 -19 -16 0
-90 147 -136 271 -60 159 -97 321 -121 527 l-7 52 459 0 460 0 6 -107z m1936
44 c0 -142 -63 -653 -83 -673 -3 -3 -96 -1 -207 5 -259 14 -857 14 -1107 0
-107 -6 -197 -9 -199 -6 -18 18 -71 409 -80 600 l-7 137 841 0 842 0 0 -63z
m1174 11 c-33 -280 -95 -501 -201 -712 l-44 -88 -37 6 c-81 12 -435 56 -565
70 -76 8 -141 16 -143 19 -3 3 4 61 15 129 31 192 60 484 61 606 l0 22 460 0
461 0 -7 -52z m-1614 -929 c157 -6 287 -13 289 -15 8 -8 -58 -201 -110 -323
-108 -251 -269 -455 -422 -533 -76 -38 -186 -49 -255 -25 -171 60 -313 219
-457 512 -60 121 -135 322 -135 359 0 13 12 16 58 17 31 1 138 5 237 8 291 12
493 12 795 0z m-1311 -178 c73 -229 185 -465 285 -600 14 -19 24 -36 22 -38
-7 -7 -197 68 -281 109 -111 56 -231 129 -327 200 -151 112 -414 384 -386 399
27 14 628 80 639 70 3 -3 25 -66 48 -140z m2316 98 c222 -27 211 -23 183 -62
-39 -55 -240 -257 -318 -320 -164 -132 -366 -248 -564 -321 -54 -21 -100 -36
-101 -34 -2 2 24 46 57 98 112 176 239 468 293 676 3 12 156 -1 450 -37z"/>
</g>
</svg>
