<svg width="113" height="113" viewBox="0 0 113 113" fill="none" xmlns="http://www.w3.org/2000/svg">
<circle cx="56.5" cy="56.5" r="56.5" fill="#0036B5"/>
<g clip-path="url(#clip0_128_185)">
<path d="M56.5 85C40.7872 85 28 72.1903 28 56.4378C28 40.6853 40.7872 28 56.5 28C72.2128 28 85 40.761 85 56.4378C85 72.1145 72.2128 85 56.5 85ZM56.5 33.258C43.6804 33.258 33.2466 43.6551 33.2466 56.4378C33.2466 69.2205 43.6804 79.742 56.5 79.742C69.3196 79.742 79.7534 69.2908 79.7534 56.4378C79.7534 43.5848 69.325 33.258 56.5 33.258Z" fill="white"/>
<path d="M65.7789 59.0725H47.1028C45.6562 59.0725 44.4795 57.8932 44.4795 56.4435C44.4795 54.9937 45.6562 53.8145 47.1028 53.8145H65.7789C67.2255 53.8145 68.4022 54.9937 68.4022 56.4435C68.4022 57.8932 67.2255 59.0725 65.7789 59.0725Z" fill="white"/>
<path d="M56.5002 68.4906C55.0537 68.4906 53.877 67.3113 53.877 65.8615V47.1446C53.877 45.6949 55.0537 44.5156 56.5002 44.5156C57.9468 44.5156 59.1235 45.6949 59.1235 47.1446V65.8615C59.1235 67.3113 57.9468 68.4906 56.5002 68.4906Z" fill="white"/>
</g>
<defs>
<clipPath id="clip0_128_185">
<rect width="57" height="57" fill="white" transform="translate(28 28)"/>
</clipPath>
</defs>
</svg>
