<svg width="64" height="67" viewBox="0 0 64 67" fill="none" xmlns="http://www.w3.org/2000/svg">
<path d="M49.2502 30.5051C51.0286 46.9333 58.0103 51.898 58.0103 51.898H3C3 51.898 12.1684 45.3784 12.1684 22.5592C12.1684 17.3718 14.1003 12.3968 17.5391 8.72877C20.9779 5.06068 25.6419 3 30.5051 3C31.536 3 32.5579 3.0926 33.5613 3.27349" stroke="#0036B5" stroke-width="5.24" stroke-linecap="round" stroke-linejoin="round"/>
<path d="M51.8979 21.3368C56.9616 21.3368 61.0662 17.2319 61.0662 12.1684C61.0662 7.10484 56.9616 3 51.8979 3C46.8342 3 42.7295 7.10484 42.7295 12.1684C42.7295 17.2319 46.8342 21.3368 51.8979 21.3368Z" stroke="#0036B5" stroke-width="5.24" stroke-linecap="round" stroke-linejoin="round"/>
<path d="M35.791 61.0664C35.2537 61.9927 34.4827 62.7616 33.5545 63.2958C32.6267 63.8304 31.5748 64.1118 30.5039 64.1118C29.433 64.1118 28.3811 63.8304 27.4533 63.2958C26.5254 62.7616 25.7541 61.9927 25.2168 61.0664" stroke="#0036B5" stroke-width="5.24" stroke-linecap="round" stroke-linejoin="round"/>
</svg>
