<svg width="79" height="79" viewBox="0 0 79 79" fill="none" xmlns="http://www.w3.org/2000/svg">
<path d="M39.7959 3C60.1177 3 76.5918 19.4741 76.5918 39.7959C76.5918 60.1175 60.1177 76.5918 39.7959 76.5918C19.4743 76.5918 3 60.1175 3 39.7959C3 19.4741 19.4743 3 39.7959 3Z" stroke="#0036B5" stroke-width="4.53" stroke-linecap="round" stroke-linejoin="round"/>
<path d="M68.2334 63.1458C68.2334 63.1458 60.0315 52.6748 39.7938 52.6748C19.5561 52.6748 11.3539 63.1458 11.3539 63.1458" stroke="#0036B5" stroke-width="4.53" stroke-linecap="round" stroke-linejoin="round"/>
<path d="M39.7952 39.7963C33.6985 39.7963 28.7564 34.8542 28.7564 28.7575C28.7564 22.661 33.6985 17.7188 39.7952 17.7188C45.8919 17.7188 50.834 22.661 50.834 28.7575C50.834 34.8542 45.8919 39.7963 39.7952 39.7963Z" stroke="#0036B5" stroke-width="4.53" stroke-linecap="round" stroke-linejoin="round"/>
</svg>
