<svg width="63" height="69" viewBox="0 0 63 69" fill="none" xmlns="http://www.w3.org/2000/svg">
<g clip-path="url(#clip0_122_2145)">
<path d="M50.8421 69H10.5528C4.73316 69 0 64.2033 0 58.308V10.5649C0 4.73921 4.73316 0 10.5528 0H50.8421V3.02632H10.5528C6.40368 3.02632 3.02632 6.40671 3.02632 10.5649V58.308C3.02632 62.5358 6.40368 65.9737 10.5528 65.9737H50.8421V69Z" fill="white"/>
<path d="M60.2237 20.5791H20.2764V23.6054H60.2237V20.5791Z" fill="white"/>
<path d="M28.0419 32.5416L17.5225 22.0887L28.2386 11.4814L30.3692 13.6332L21.8198 22.0947L30.1755 30.3929L28.0419 32.5416Z" fill="white"/>
<path d="M59.6183 47.5127H19.6709V50.539H59.6183V47.5127Z" fill="white"/>
<path d="M51.6559 59.7788L49.5254 57.6271L58.0747 49.1655L49.7191 40.8673L51.8526 38.7217L62.3721 49.1715L51.6559 59.7788Z" fill="white"/>
</g>
<defs>
<clipPath id="clip0_122_2145">
<rect width="62.3724" height="69" fill="white"/>
</clipPath>
</defs>
</svg>
