<svg width="144" height="144" viewBox="0 0 144 144" fill="none" xmlns="http://www.w3.org/2000/svg">
<path d="M72 4C34.4446 4 4 34.4446 4 72C4 109.555 34.4446 140 72 140C109.555 140 140 109.555 140 72C140 34.4446 109.555 4 72 4Z" stroke="#0036B5" stroke-opacity="0.92" stroke-width="6.83" stroke-linecap="round" stroke-linejoin="round"/>
<path d="M19.4429 115.151C19.4429 115.151 34.6002 95.8 72.0001 95.8C109.4 95.8 124.558 115.151 124.558 115.151" stroke="#0036B5" stroke-opacity="0.92" stroke-width="6.83" stroke-linecap="round" stroke-linejoin="round"/>
<path d="M72.0001 72C83.267 72 92.4001 62.8669 92.4001 51.6C92.4001 40.3334 83.267 31.2 72.0001 31.2C60.7332 31.2 51.6001 40.3334 51.6001 51.6C51.6001 62.8669 60.7332 72 72.0001 72Z" stroke="#0036B5" stroke-opacity="0.92" stroke-width="6.83" stroke-linecap="round" stroke-linejoin="round"/>
</svg>
