<svg width="57" height="76" viewBox="0 0 57 76" fill="none" xmlns="http://www.w3.org/2000/svg">
<g clip-path="url(#clip0_122_2111)">
<path d="M30.0329 67.2725H26.8662V75.7915H30.0329V67.2725Z" fill="white"/>
<path d="M29.0065 59.2453H27.9932C17.5178 59.2453 8.99316 50.7515 8.99316 40.3141V18.9312C8.99316 8.49381 17.5178 0 27.9932 0H29.0065C39.4818 0 48.0065 8.49381 48.0065 18.9312V40.3141C48.0065 50.7515 39.4818 59.2453 29.0065 59.2453ZM27.9932 3.15521C19.2627 3.15521 12.1598 10.2323 12.1598 18.9312V40.3141C12.1598 49.013 19.2627 56.0901 27.9932 56.0901H29.0065C37.737 56.0901 44.8398 49.013 44.8398 40.3141V18.9312C44.8398 10.2323 37.737 3.15521 29.0065 3.15521H27.9932Z" fill="white"/>
<path d="M29.0162 68.3704H27.9838C12.5527 68.3704 0 56.4879 0 41.8793V35.6162H3.16667V41.8793C3.16667 54.7462 14.3007 65.2152 27.9838 65.2152H29.0162C42.6993 65.2152 53.8333 54.7462 53.8333 41.8793V35.6162H57V41.8793C57 56.4847 44.4473 68.3704 29.0162 68.3704Z" fill="white"/>
<path d="M36.0491 17.4199H21.4824V20.5751H36.0491V17.4199Z" fill="white"/>
<path d="M36.0491 28.4629H21.4824V31.6181H36.0491V28.4629Z" fill="white"/>
<path d="M36.0491 39.1904H21.4824V42.3456H36.0491V39.1904Z" fill="white"/>
</g>
<defs>
<clipPath id="clip0_122_2111">
<rect width="57" height="75.7912" fill="white"/>
</clipPath>
</defs>
</svg>
