<svg width="65" height="63" viewBox="0 0 65 63" fill="none" xmlns="http://www.w3.org/2000/svg">
<g clip-path="url(#clip0_122_2121)">
<path d="M52.637 63H6.66831C2.99007 63 0 59.9868 0 56.2801V6.71986C0 3.01318 2.99007 0 6.66831 0H52.637V2.68794H6.66831C4.46243 2.68794 2.66732 4.49693 2.66732 6.71986V56.2801C2.66732 58.5031 4.46243 60.3121 6.66831 60.3121H52.637V63Z" fill="white"/>
<path d="M62.8646 6.45594L30.5439 49.8516L32.6772 51.4651L64.9979 8.06946L62.8646 6.45594Z" fill="white"/>
<path d="M37.2706 15.4424H9.69043V18.1303H37.2706V15.4424Z" fill="white"/>
<path d="M31.6078 25.1191H9.69043V27.8071H31.6078V25.1191Z" fill="white"/>
<path d="M26.0198 34.7979H9.69043V37.4858H26.0198V34.7979Z" fill="white"/>
</g>
<defs>
<clipPath id="clip0_122_2121">
<rect width="65" height="63" fill="white"/>
</clipPath>
</defs>
</svg>
