<svg width="58" height="56" viewBox="0 0 58 56" fill="none" xmlns="http://www.w3.org/2000/svg">
<g clip-path="url(#clip0_122_2110)">
<path d="M25.7054 36.2776C15.7042 36.2776 7.56543 28.1411 7.56543 18.1377C7.56543 8.13418 15.7042 0 25.7054 0C35.7066 0 43.8454 8.1365 43.8454 18.14C43.8454 28.1434 35.7089 36.2799 25.7054 36.2799V36.2776ZM25.7054 2.31348C16.979 2.31348 9.87891 9.41353 9.87891 18.14C9.87891 26.8664 16.979 33.9665 25.7054 33.9665C34.4318 33.9665 41.5319 26.8664 41.5319 18.14C41.5319 9.41353 34.4318 2.31348 25.7054 2.31348Z" fill="white"/>
<path d="M40.8147 35.7432C39.3734 34.5217 37.7887 33.4784 36.1045 32.6409L37.134 30.5703C38.9848 31.4911 40.7268 32.6386 42.3092 33.9781L40.8147 35.7432Z" fill="white"/>
<path d="M2.31348 53.6379H0C0 48.7796 1.37189 43.9953 3.96761 39.8935C6.49161 35.9028 10.059 32.6732 14.2811 30.5771L15.3106 32.6639C7.29439 36.6477 2.31579 44.6176 2.31579 53.6402L2.31348 53.6379Z" fill="white"/>
<path d="M57.6747 43.9307H35.8447V46.2441H57.6747V43.9307Z" fill="white"/>
<path d="M47.917 34.1719H45.6035V56.0018H47.917V34.1719Z" fill="white"/>
</g>
<defs>
<clipPath id="clip0_122_2110">
<rect width="57.675" height="56" fill="white"/>
</clipPath>
</defs>
</svg>
