<svg width="138" height="125" viewBox="0 0 138 125" fill="none" xmlns="http://www.w3.org/2000/svg">
<path d="M5 106.31V99.9779C5 75.4989 24.8441 55.6548 49.3231 55.6548" stroke="white" stroke-width="9.12" stroke-linecap="round" stroke-linejoin="round"/>
<path d="M92.4052 57.64C96.469 53.1779 103.49 53.1779 107.554 57.64C109.608 59.8954 112.559 61.1181 115.606 60.9756C121.635 60.6939 126.6 65.6587 126.318 71.6872C126.176 74.7341 127.398 77.6861 129.654 79.7401C134.116 83.8039 134.116 90.8247 129.654 94.8885C127.398 96.9425 126.176 99.8945 126.318 102.941C126.6 108.97 121.635 113.935 115.606 113.653C112.559 113.511 109.608 114.733 107.554 116.989C103.49 121.451 96.469 121.451 92.4052 116.989C90.3511 114.733 87.3992 113.511 84.3523 113.653C78.3237 113.935 73.3589 108.97 73.6407 102.941C73.7831 99.8945 72.5605 96.9425 70.305 94.8885C65.843 90.8247 65.843 83.8039 70.305 79.7401C72.5605 77.6861 73.7831 74.7341 73.6407 71.6872C73.3589 65.6587 78.3237 60.6939 84.3523 60.9756C87.3992 61.1181 90.3511 59.8954 92.4052 57.64Z" stroke="white" stroke-width="9.12"/>
<path d="M89.6147 87.3142L96.5228 94.2216L110.338 80.4067" stroke="white" stroke-width="9.12" stroke-linecap="round" stroke-linejoin="round"/>
<path d="M49.3233 55.6549C63.311 55.6549 74.6508 44.3152 74.6508 30.3275C74.6508 16.3395 63.311 5 49.3233 5C35.3353 5 23.9958 16.3395 23.9958 30.3275C23.9958 44.3152 35.3353 55.6549 49.3233 55.6549Z" stroke="white" stroke-width="9.12" stroke-linecap="round" stroke-linejoin="round"/>
</svg>
