<svg width="70" height="72" viewBox="0 0 70 72" fill="none" xmlns="http://www.w3.org/2000/svg">
<path d="M3 61.8817V10.3602C3 6.29527 6.18375 3 10.1111 3H49.8324C51.7182 3 53.5269 3.77543 54.8606 5.15577L64.9172 15.5646C66.2508 16.945 67 18.817 67 20.7691V61.8817C67 65.9467 63.8164 69.2419 59.8889 69.2419H10.1111C6.18375 69.2419 3 65.9467 3 61.8817Z" stroke="#0036B5" stroke-width="4.81"/>
<path d="M22.9117 25.0806H47.0894C48.2677 25.0806 49.2228 24.092 49.2228 22.8726V5.20806C49.2228 3.98859 48.2677 3 47.0894 3H22.9117C21.7335 3 20.7783 3.98859 20.7783 5.20806V22.8726C20.7783 24.092 21.7335 25.0806 22.9117 25.0806Z" stroke="#0036B5" stroke-width="4.81"/>
<path d="M13.667 42.0098V69.2426H56.3337V42.0098C56.3337 40.7902 55.3786 39.8018 54.2003 39.8018H15.8003C14.6221 39.8018 13.667 40.7902 13.667 42.0098Z" stroke="#0036B5" stroke-width="4.81"/>
</svg>
