<svg width="87" height="87" viewBox="0 0 87 87" fill="none" xmlns="http://www.w3.org/2000/svg">
<path d="M43.7044 55.9156C50.4487 55.9156 55.9156 50.4487 55.9156 43.7044C55.9156 36.9601 50.4487 31.4932 43.7044 31.4932C36.9601 31.4932 31.4932 36.9601 31.4932 43.7044C31.4932 50.4487 36.9601 55.9156 43.7044 55.9156Z" stroke="#0036B5" stroke-width="4.53" stroke-linecap="round" stroke-linejoin="round"/>
<path d="M74.7304 37.1727L70.2623 26.3837L76.2674 19.2816L68.1266 11.1408L61.0632 17.177L50.045 12.6458L47.5112 3H39.5564L36.9843 12.7736L26.2193 17.3114L19.2816 11.1408L11.1408 19.2816L17.0566 26.563L12.657 37.3799L3 39.6337V47.7745L12.7735 50.4427L17.3105 61.2056L11.1408 68.1266L19.2816 76.2674L26.5724 70.3258L37.1792 74.6893L39.6337 84.4082H47.7745L50.2351 74.6929L61.0241 70.2249C62.8224 71.5103 68.1266 76.2674 68.1266 76.2674L76.2674 68.1266L70.2265 61.0009L74.6958 50.2086L84.4078 47.6817L84.4082 39.6337L74.7304 37.1727Z" stroke="#0036B5" stroke-width="4.53" stroke-linecap="round" stroke-linejoin="round"/>
</svg>
