<svg width="120" height="120" viewBox="0 0 120 120" fill="none" xmlns="http://www.w3.org/2000/svg">
<path d="M32.0005 93.6V88C32.0005 72.5362 44.5365 60 60.0005 60C75.4643 60 88.0005 72.5362 88.0005 88V93.6" stroke="white" stroke-width="7.24" stroke-linecap="round"/>
<path d="M59.9997 59.9999C69.2783 59.9999 76.7997 52.4785 76.7997 43.1999C76.7997 33.9215 69.2783 26.3999 59.9997 26.3999C50.7211 26.3999 43.1997 33.9215 43.1997 43.1999C43.1997 52.4785 50.7211 59.9999 59.9997 59.9999Z" stroke="white" stroke-width="7.24" stroke-linecap="round" stroke-linejoin="round"/>
<path d="M60 116C90.9279 116 116 90.9279 116 60C116 29.0721 90.9279 4 60 4C29.0721 4 4 29.0721 4 60C4 90.9279 29.0721 116 60 116Z" stroke="white" stroke-width="7.24"/>
</svg>
