<svg width="77" height="68" viewBox="0 0 77 68" fill="none" xmlns="http://www.w3.org/2000/svg">
<g clip-path="url(#clip0_104_1934)">
<path d="M64.715 31.69C63.6943 31.69 62.6736 31.2521 61.9736 30.3982L55.0472 21.9831C53.8004 20.4723 54.0192 18.2389 55.5357 16.9909C57.0376 15.7429 59.276 15.9618 60.5227 17.4799L67.4491 25.895C68.6959 27.4058 68.4772 29.6392 66.9606 30.8872C66.3045 31.4273 65.5025 31.6973 64.715 31.6973V31.69Z" fill="white"/>
<path d="M64.715 31.6902C64.1608 31.6902 63.6067 31.5588 63.0818 31.2888C61.3465 30.3838 60.6685 28.238 61.5725 26.501L70.3144 9.67066C71.2112 7.93362 73.3475 7.25486 75.0973 8.15987C76.8326 9.06488 77.5106 11.2106 76.6065 12.9477L67.8647 29.778C67.2303 30.9895 65.9982 31.6902 64.715 31.6902Z" fill="white"/>
<path d="M30.417 39.4483C19.5535 39.4483 10.7168 30.6026 10.7168 19.7205C10.7168 8.83847 19.5535 0 30.417 0C41.2806 0 49.9568 8.84577 49.9568 19.7205C49.9568 30.5953 41.1931 39.4483 30.417 39.4483ZM30.417 7.10143C23.4614 7.10143 17.8036 12.7651 17.8036 19.7278C17.8036 26.6906 23.4614 32.3542 30.417 32.3542C37.3726 32.3542 42.8627 26.6906 42.8627 19.7278C42.8627 12.7651 37.2778 7.10143 30.417 7.10143Z" fill="white"/>
<path d="M57.1313 68.0001C55.7533 68.0001 54.4482 67.1973 53.8722 65.8544C49.833 56.432 40.6318 50.3451 30.4171 50.3451C20.2025 50.3451 10.8336 56.432 6.80164 65.8544C6.0288 67.6498 3.95087 68.4818 2.15 67.7155C0.349129 66.9419 -0.482042 64.8618 0.290801 63.0591C5.44552 51.0239 17.2715 43.251 30.4244 43.251C43.5773 43.251 55.2356 51.0239 60.3903 63.0591C61.1632 64.8618 60.3247 66.9419 58.5311 67.7155C58.0718 67.9126 57.6052 68.0001 57.1385 68.0001H57.1313Z" fill="white"/>
</g>
<defs>
<clipPath id="clip0_104_1934">
<rect width="77" height="68" fill="white"/>
</clipPath>
</defs>
</svg>
