<svg width="27" height="25" viewBox="0 0 27 25" fill="none" xmlns="http://www.w3.org/2000/svg">
<path d="M23.1792 23.7062H4.6474C3.18528 23.7062 2 22.5209 2 21.0588V9.14545C2 7.68333 3.18528 6.49805 4.6474 6.49805H23.1792C24.6414 6.49805 25.8266 7.68333 25.8266 9.14545V21.0588C25.8266 22.5209 24.6414 23.7062 23.1792 23.7062Z" stroke="#0036B5" stroke-width="2.14"/>
<path d="M19.8701 15.7641C19.5046 15.7641 19.2083 15.4678 19.2083 15.1023C19.2083 14.7368 19.5046 14.4404 19.8701 14.4404C20.2356 14.4404 20.532 14.7368 20.532 15.1023C20.532 15.4678 20.2356 15.7641 19.8701 15.7641Z" stroke="#0036B5" stroke-width="2.14" stroke-linecap="round" stroke-linejoin="round"/>
<path d="M21.8555 6.49777V4.64885C21.8555 2.90942 20.2067 1.64265 18.526 2.09083L3.96526 5.9737C2.80636 6.28274 2 7.33231 2 8.53171V9.14517" stroke="#0036B5" stroke-width="2.14"/>
</svg>
